<svg width="200" height="200" viewBox="0 0 200 200" fill="none" xmlns="http://www.w3.org/2000/svg" role="img" aria-label="ReddWall logo mark">
  <path d="M100 18L158 38V88C158 122 136 151 100 171C64 151 42 122 42 88V38L100 18Z" fill="#2D2D2D" stroke="#FF5A1F" stroke-width="3" stroke-linejoin="round"/>
  <path d="M100 31L146 47V88C146 113 130 136 100 153C70 136 54 113 54 88V47L100 31Z" fill="#353535" opacity="0.96"/>
  <g stroke="#2D2D2D" stroke-width="3" stroke-linejoin="round">
    <rect x="70" y="50" width="60" height="12" rx="1.5" fill="#FF6B35"/>
    <rect x="55" y="66" width="28" height="12" rx="1.5" fill="#F0784A"/>
    <rect x="86" y="66" width="28" height="12" rx="1.5" fill="#F0784A"/>
    <rect x="117" y="66" width="28" height="12" rx="1.5" fill="#F0784A"/>
    <rect x="65" y="82" width="24" height="12" rx="1.5" fill="#E86A3E"/>
    <rect x="92" y="82" width="24" height="12" rx="1.5" fill="#E86A3E"/>
    <rect x="119" y="82" width="24" height="12" rx="1.5" fill="#E86A3E"/>
    <rect x="55" y="98" width="28" height="12" rx="1.5" fill="#D95F38"/>
    <rect x="86" y="98" width="28" height="12" rx="1.5" fill="#D95F38"/>
    <rect x="117" y="98" width="28" height="12" rx="1.5" fill="#D95F38"/>
    <rect x="68" y="114" width="30" height="12" rx="1.5" fill="#C95734"/>
    <rect x="101" y="114" width="30" height="12" rx="1.5" fill="#C95734"/>
    <rect x="80" y="130" width="40" height="12" rx="1.5" fill="#B94D30"/>
  </g>
</svg>
